<svg width="150" height="151" viewBox="0 0 150 151" fill="none" xmlns="http://www.w3.org/2000/svg">
<g id="Logo">
<g id="Group">
<g id="Group_2">
<path id="Vector" d="M99.9989 150.5V125.5C113.832 125.5 124.999 114.333 124.999 100.5H149.998C149.998 128.167 127.582 150.5 99.9989 150.5Z" fill="#FFD11A"/>
</g>
<g id="Group_3">
<path id="Vector_2" d="M99.9991 150.5V125.5C86.1659 125.5 74.9993 114.333 74.9993 100.5H49.9996C49.9996 128.167 72.416 150.5 99.9991 150.5Z" fill="#FFD11A"/>
</g>
</g>
<g id="Group_4">
<g id="Group_5">
<path id="Vector_3" d="M0 100.498H24.9997C24.9997 114.331 36.1662 125.497 49.9994 125.497V150.497C22.4164 150.497 0 128.164 0 100.498Z" fill="#FFD11A"/>
</g>
<g id="Group_6">
<path id="Vector_4" d="M0 100.499H24.9997C24.9997 86.6658 36.1662 75.4992 49.9994 75.4992V50.4995C22.4164 50.4995 0 72.9159 0 100.499Z" fill="#FFD11A"/>
</g>
</g>
<g id="Group_7">
<g id="Group_8">
<path id="Vector_5" d="M49.9994 0.500244V25.5C36.1662 25.5 24.9997 36.6665 24.9997 50.4997H0C0 22.9167 22.4164 0.500244 49.9994 0.500244Z" fill="#FFD11A"/>
</g>
<g id="Group_9">
<path id="Vector_6" d="M49.9996 0.500244V25.5C63.8327 25.5 74.9993 36.6665 74.9993 50.4997H99.999C99.999 22.9167 77.5826 0.500244 49.9996 0.500244Z" fill="#FFD11A"/>
</g>
</g>
<g id="Group_10">
<g id="Group_11">
<path id="Vector_7" d="M149.998 50.4997H124.998C124.998 36.6665 113.832 25.5 99.9987 25.5V0.500244C127.582 0.500244 149.998 22.9167 149.998 50.4997Z" fill="#FFD11A"/>
</g>
<g id="Group_12">
<path id="Vector_8" d="M149.998 50.4993H124.998C124.998 64.3324 113.832 75.499 99.9987 75.499V100.499C127.582 100.499 149.998 78.1656 149.998 50.4993Z" fill="#FFD11A"/>
</g>
</g>
</g>
</svg>
