<svg width="24" height="24" viewBox="0 0 24 24" fill="none" xmlns="http://www.w3.org/2000/svg">
<g id="Icon">
<path id="Vector" d="M20.8646 1.6001H3.13544C2.72822 1.6001 2.33767 1.76187 2.04972 2.04982C1.76177 2.33777 1.6 2.72832 1.6 3.13554V20.8647C1.6 21.2719 1.76177 21.6624 2.04972 21.9504C2.33767 22.2383 2.72822 22.4001 3.13544 22.4001H20.8646C21.2718 22.4001 21.6623 22.2383 21.9503 21.9504C22.2382 21.6624 22.4 21.2719 22.4 20.8647V3.13554C22.4 2.72832 22.2382 2.33777 21.9503 2.04982C21.6623 1.76187 21.2718 1.6001 20.8646 1.6001ZM7.79956 19.3191H4.67233V9.38565H7.79956V19.3191ZM6.23378 8.0091C5.87905 8.0071 5.53286 7.90007 5.2389 7.70151C4.94495 7.50295 4.71639 7.22176 4.58209 6.89343C4.44779 6.5651 4.41376 6.20434 4.48429 5.85669C4.55483 5.50904 4.72676 5.19007 4.9784 4.94004C5.23004 4.69001 5.55011 4.52013 5.8982 4.45183C6.2463 4.38353 6.60683 4.41988 6.93429 4.55628C7.26175 4.69269 7.54147 4.92304 7.73814 5.21827C7.93481 5.51349 8.03961 5.86036 8.03933 6.2151C8.04268 6.45259 7.99818 6.68833 7.90848 6.90826C7.81878 7.12819 7.68572 7.32781 7.51723 7.49522C7.34874 7.66263 7.14827 7.79441 6.92777 7.8827C6.70727 7.97098 6.47125 8.01397 6.23378 8.0091ZM19.3262 19.3278H16.2004V13.901C16.2004 12.3005 15.5201 11.8065 14.6419 11.8065C13.7146 11.8065 12.8046 12.5057 12.8046 13.9414V19.3278H9.67733V9.39288H12.6847V10.7694H12.7251C13.027 10.1584 14.0843 9.1141 15.6978 9.1141C17.4427 9.1141 19.3277 10.1498 19.3277 13.1831L19.3262 19.3278Z" fill="white"/>
</g>
</svg>
