<svg width="24" height="24" viewBox="0 0 24 24" fill="none" xmlns="http://www.w3.org/2000/svg">
<g id="Icon">
<g id="Group">
<path id="Vector" d="M13.5374 12.2276C13.5374 15.9983 10.5069 19.0551 6.76883 19.0551C3.03073 19.0551 0 15.9976 0 12.2276C0 8.45758 3.0305 5.3999 6.76883 5.3999C10.5072 5.3999 13.5374 8.45688 13.5374 12.2276Z" fill="white"/>
<path id="Vector_2" d="M20.9628 12.2276C20.9628 15.7769 19.4475 18.6553 17.5784 18.6553C15.7092 18.6553 14.194 15.7769 14.194 12.2276C14.194 8.67824 15.709 5.7998 17.5781 5.7998C19.4473 5.7998 20.9626 8.67732 20.9626 12.2276" fill="white"/>
<path id="Vector_3" d="M24 12.2275C24 15.4068 23.4671 17.9857 22.8097 17.9857C22.1522 17.9857 21.6196 15.4075 21.6196 12.2275C21.6196 9.04748 22.1524 6.46924 22.8097 6.46924C23.4669 6.46924 24 9.04725 24 12.2275Z" fill="white"/>
</g>
</g>
</svg>
